<?xml version="1.0" encoding="UTF-8" standalone="no"?>
<!-- Created with Inkscape (http://www.inkscape.org/) -->

<svg
   xmlns:dc="http://purl.org/dc/elements/1.1/"
   xmlns:cc="http://creativecommons.org/ns#"
   xmlns:rdf="http://www.w3.org/1999/02/22-rdf-syntax-ns#"
   xmlns:svg="http://www.w3.org/2000/svg"
   xmlns="http://www.w3.org/2000/svg"
   xmlns:xlink="http://www.w3.org/1999/xlink"
   xmlns:sodipodi="http://sodipodi.sourceforge.net/DTD/sodipodi-0.dtd"
   xmlns:inkscape="http://www.inkscape.org/namespaces/inkscape"
   width="210mm"
   height="297mm"
   viewBox="0 0 744.09448819 1052.3622047"
   id="svg3624"
   version="1.1"
   inkscape:version="0.91 r13725"
   sodipodi:docname="icons.svg">
  <defs
     id="defs3626">
    <radialGradient
       inkscape:collect="always"
       xlink:href="#linearGradient6525"
       id="radialGradient6531"
       cx="10668.399"
       cy="-1098.6478"
       fx="10668.399"
       fy="-1098.6478"
       r="74.372925"
       gradientTransform="matrix(-0.03632144,-0.02746851,0.02529807,-0.03345148,-589.52034,-591.64885)"
       gradientUnits="userSpaceOnUse"
       spreadMethod="reflect" />
    <linearGradient
       id="linearGradient6525"
       inkscape:collect="always">
      <stop
         id="stop6535"
         offset="0"
         style="stop-color:#4d4d4d;stop-opacity:1;" />
      <stop
         id="stop6537"
         offset="1"
         style="stop-color:#949ea3;stop-opacity:1" />
    </linearGradient>
    <linearGradient
       inkscape:collect="always"
       xlink:href="#linearGradient6525"
       id="linearGradient6541"
       x1="10586.732"
       y1="-1097.6339"
       x2="10754.95"
       y2="-1097.6339"
       gradientUnits="userSpaceOnUse"
       gradientTransform="translate(-11673.206,250.70525)" />
    <linearGradient
       inkscape:collect="always"
       xlink:href="#linearGradient5866"
       id="linearGradient6284"
       gradientUnits="userSpaceOnUse"
       gradientTransform="matrix(1.0799031,0,0,1.0799031,-12034.019,2897.1976)"
       spreadMethod="reflect"
       x1="10282.979"
       y1="-2881.0127"
       x2="10333.021"
       y2="-2880.0127" />
    <linearGradient
       id="linearGradient5866"
       inkscape:collect="always">
      <stop
         id="stop5868"
         offset="0"
         style="stop-color:#ffca00;stop-opacity:1" />
      <stop
         style="stop-color:#716000;stop-opacity:1;"
         offset="0.68846655"
         id="stop5872" />
      <stop
         id="stop5870"
         offset="1"
         style="stop-color:#000000;stop-opacity:1" />
    </linearGradient>
    <linearGradient
       inkscape:collect="always"
       xlink:href="#linearGradient5866"
       id="linearGradient6286"
       gradientUnits="userSpaceOnUse"
       gradientTransform="translate(26,0)"
       spreadMethod="reflect"
       x1="10272.069"
       y1="-2913.7788"
       x2="10366.964"
       y2="-2916.6072" />
    <filter
       inkscape:collect="always"
       style="color-interpolation-filters:sRGB"
       id="filter5927"
       x="-0.028636364"
       width="1.0572727"
       y="-0.048461538"
       height="1.0969231">
      <feGaussianBlur
         inkscape:collect="always"
         stdDeviation="0.74246212"
         id="feGaussianBlur5929" />
    </filter>
    <linearGradient
       inkscape:collect="always"
       xlink:href="#linearGradient5622"
       id="linearGradient6288"
       gradientUnits="userSpaceOnUse"
       gradientTransform="matrix(0.35508444,0,0,0.32187806,6524.1208,-2008.426)"
       spreadMethod="reflect"
       x1="10466.595"
       y1="-3120.9819"
       x2="10545.791"
       y2="-3120.9822" />
    <linearGradient
       inkscape:collect="always"
       id="linearGradient5622">
      <stop
         style="stop-color:#dcdcdc;stop-opacity:1"
         offset="0"
         id="stop5624" />
      <stop
         id="stop5626"
         offset="0.07110184"
         style="stop-color:#d4d1d1;stop-opacity:1" />
      <stop
         style="stop-color:#000000;stop-opacity:1"
         offset="1"
         id="stop5628" />
    </linearGradient>
    <filter
       inkscape:collect="always"
       style="color-interpolation-filters:sRGB"
       id="filter5806"
       x="-0.044894964"
       width="1.0897899"
       y="-0.019924464"
       height="1.0398489">
      <feGaussianBlur
         inkscape:collect="always"
         stdDeviation="0.65755346"
         id="feGaussianBlur5808" />
    </filter>
    <linearGradient
       inkscape:collect="always"
       xlink:href="#linearGradient5622"
       id="linearGradient6290"
       gradientUnits="userSpaceOnUse"
       gradientTransform="matrix(1.0000966,0,0,0.90657073,-329.12463,-304.05258)"
       spreadMethod="reflect"
       x1="10466.595"
       y1="-3120.9819"
       x2="10545.791"
       y2="-3120.9822" />
    <filter
       inkscape:collect="always"
       style="color-interpolation-filters:sRGB"
       id="filter5682"
       x="-0.021471504"
       width="1.042943"
       y="-0.0095290914"
       height="1.0190582">
      <feGaussianBlur
         inkscape:collect="always"
         stdDeviation="0.88573992"
         id="feGaussianBlur5684" />
    </filter>
    <linearGradient
       inkscape:collect="always"
       xlink:href="#linearGradient5622"
       id="linearGradient6292"
       gradientUnits="userSpaceOnUse"
       spreadMethod="reflect"
       x1="10303.86"
       y1="-3259.332"
       x2="10219.107"
       y2="-3260.9893" />
    <filter
       inkscape:collect="always"
       style="color-interpolation-filters:sRGB"
       id="filter5542"
       x="-0.011834502"
       width="1.023669"
       y="-0.050844081"
       height="1.1016881">
      <feGaussianBlur
         inkscape:collect="always"
         stdDeviation="0.6907747"
         id="feGaussianBlur5544" />
    </filter>
    <radialGradient
       inkscape:collect="always"
       xlink:href="#linearGradient5622"
       id="radialGradient6294"
       gradientUnits="userSpaceOnUse"
       gradientTransform="matrix(1.0419387,-0.00582156,0.00314039,0.56206433,-515.19564,-1280.5366)"
       spreadMethod="reflect"
       cx="10386.691"
       cy="-3251.7966"
       fx="10386.691"
       fy="-3251.7966"
       r="70.103561" />
    <filter
       inkscape:collect="always"
       style="color-interpolation-filters:sRGB"
       id="filter5534"
       x="-0.01139288"
       width="1.0227858"
       y="-0.061003324"
       height="1.1220067">
      <feGaussianBlur
         inkscape:collect="always"
         stdDeviation="0.57785075"
         id="feGaussianBlur5536" />
    </filter>
    <radialGradient
       inkscape:collect="always"
       xlink:href="#linearGradient5386"
       id="radialGradient6296"
       gradientUnits="userSpaceOnUse"
       gradientTransform="matrix(4.1025085,7.2210182e-6,6.5132526e-8,0.38704045,-43552.087,769.85505)"
       cx="10386.691"
       cy="-3251.7966"
       fx="10386.691"
       fy="-3251.7966"
       r="70.103561" />
    <linearGradient
       id="linearGradient5386"
       inkscape:collect="always">
      <stop
         id="stop5388"
         offset="0"
         style="stop-color:#dcdcdc;stop-opacity:1" />
      <stop
         style="stop-color:#d4d1d1;stop-opacity:1"
         offset="0.17248082"
         id="stop5390" />
      <stop
         id="stop5392"
         offset="1"
         style="stop-color:#000000;stop-opacity:1" />
    </linearGradient>
    <radialGradient
       inkscape:collect="always"
       xlink:href="#linearGradient5622"
       id="radialGradient6298"
       gradientUnits="userSpaceOnUse"
       gradientTransform="matrix(3.5597456,-0.00333958,1.7633341e-4,0.18776965,-26680.799,-2487.9622)"
       spreadMethod="reflect"
       cx="10386.691"
       cy="-3251.7966"
       fx="10386.691"
       fy="-3251.7966"
       r="70.103561" />
    <filter
       inkscape:collect="always"
       style="color-interpolation-filters:sRGB"
       id="filter5618"
       x="-0.0050074253"
       width="1.0100149"
       y="-0.11587606"
       height="1.2317522">
      <feGaussianBlur
         inkscape:collect="always"
         stdDeviation="0.4281038"
         id="feGaussianBlur5620" />
    </filter>
    <radialGradient
       inkscape:collect="always"
       xlink:href="#linearGradient5386"
       id="radialGradient6300"
       gradientUnits="userSpaceOnUse"
       gradientTransform="matrix(4.1025085,7.2210182e-6,6.5132526e-8,0.38704045,-43552.087,795.77275)"
       cx="10386.691"
       cy="-3251.7966"
       fx="10386.691"
       fy="-3251.7966"
       r="70.103561" />
    <radialGradient
       inkscape:collect="always"
       xlink:href="#linearGradient5622"
       id="radialGradient6302"
       gradientUnits="userSpaceOnUse"
       gradientTransform="matrix(3.5597456,-0.00333958,1.7633341e-4,0.18776965,-26680.799,-2463.9622)"
       spreadMethod="reflect"
       cx="10386.691"
       cy="-3251.7966"
       fx="10386.691"
       fy="-3251.7966"
       r="70.103561" />
    <radialGradient
       inkscape:collect="always"
       xlink:href="#linearGradient5386"
       id="radialGradient6304"
       gradientUnits="userSpaceOnUse"
       gradientTransform="matrix(4.1025085,7.2210182e-6,6.5132526e-8,0.38704045,-43552.087,821.69045)"
       cx="10386.691"
       cy="-3251.7966"
       fx="10386.691"
       fy="-3251.7966"
       r="70.103561" />
    <radialGradient
       inkscape:collect="always"
       xlink:href="#linearGradient5622"
       id="radialGradient6306"
       gradientUnits="userSpaceOnUse"
       gradientTransform="matrix(3.5597456,-0.00333958,1.7633341e-4,0.18776965,-26680.799,-2439.9622)"
       spreadMethod="reflect"
       cx="10386.691"
       cy="-3251.7966"
       fx="10386.691"
       fy="-3251.7966"
       r="70.103561" />
    <radialGradient
       inkscape:collect="always"
       xlink:href="#linearGradient5386"
       id="radialGradient6308"
       gradientUnits="userSpaceOnUse"
       gradientTransform="matrix(4.1025085,7.2210182e-6,6.5132526e-8,0.38704045,-43552.087,847.60805)"
       cx="10386.691"
       cy="-3251.7966"
       fx="10386.691"
       fy="-3251.7966"
       r="70.103561" />
    <radialGradient
       inkscape:collect="always"
       xlink:href="#linearGradient5622"
       id="radialGradient6310"
       gradientUnits="userSpaceOnUse"
       gradientTransform="matrix(3.5597456,-0.00333958,1.7633341e-4,0.18776965,-26680.799,-2415.9622)"
       spreadMethod="reflect"
       cx="10386.691"
       cy="-3251.7966"
       fx="10386.691"
       fy="-3251.7966"
       r="70.103561" />
    <radialGradient
       inkscape:collect="always"
       xlink:href="#linearGradient5386"
       id="radialGradient6312"
       gradientUnits="userSpaceOnUse"
       gradientTransform="matrix(4.1025085,7.2210182e-6,6.5132526e-8,0.38704045,-43552.087,871.36595)"
       cx="10386.691"
       cy="-3251.7966"
       fx="10386.691"
       fy="-3251.7966"
       r="70.103561" />
    <radialGradient
       inkscape:collect="always"
       xlink:href="#linearGradient5622"
       id="radialGradient6314"
       gradientUnits="userSpaceOnUse"
       gradientTransform="matrix(3.5597456,-0.00333958,1.7633341e-4,0.18776965,-26680.799,-2393.9622)"
       spreadMethod="reflect"
       cx="10386.691"
       cy="-3251.7966"
       fx="10386.691"
       fy="-3251.7966"
       r="70.103561" />
    <radialGradient
       inkscape:collect="always"
       xlink:href="#linearGradient5386"
       id="radialGradient6316"
       gradientUnits="userSpaceOnUse"
       gradientTransform="matrix(4.1025085,7.2210182e-6,6.5132526e-8,0.38704045,-43552.087,899.44345)"
       cx="10386.691"
       cy="-3251.7966"
       fx="10386.691"
       fy="-3251.7966"
       r="70.103561" />
    <filter
       inkscape:collect="always"
       style="color-interpolation-filters:sRGB"
       id="filter5774"
       x="-0.0097899996"
       width="1.01958"
       y="-0.020255173"
       height="1.0405103">
      <feGaussianBlur
         inkscape:collect="always"
         stdDeviation="0.4895"
         id="feGaussianBlur5776" />
    </filter>
    <radialGradient
       inkscape:collect="always"
       xlink:href="#linearGradient5622"
       id="radialGradient6318"
       gradientUnits="userSpaceOnUse"
       gradientTransform="matrix(2.3731145,-8.0494608e-6,5.1107868e-6,1.5067447,-14159.41,1492.9433)"
       cx="10311.904"
       cy="-2945.981"
       fx="10311.904"
       fy="-2945.981"
       r="61.174801" />
    <radialGradient
       inkscape:collect="always"
       xlink:href="#linearGradient5622"
       id="radialGradient6320"
       gradientUnits="userSpaceOnUse"
       gradientTransform="matrix(3.5597456,-0.00333958,1.7633341e-4,0.18776965,-26680.799,-2367.9622)"
       spreadMethod="reflect"
       cx="10386.691"
       cy="-3251.7966"
       fx="10386.691"
       fy="-3251.7966"
       r="70.103561" />
  </defs>
  <sodipodi:namedview
     id="base"
     pagecolor="#ffffff"
     bordercolor="#666666"
     borderopacity="1.0"
     inkscape:pageopacity="0.0"
     inkscape:pageshadow="2"
     inkscape:zoom="0.49497475"
     inkscape:cx="-228.63859"
     inkscape:cy="664.83465"
     inkscape:document-units="px"
     inkscape:current-layer="layer1"
     showgrid="false"
     inkscape:window-width="1366"
     inkscape:window-height="721"
     inkscape:window-x="0"
     inkscape:window-y="18"
     inkscape:window-maximized="1" />
  <metadata
     id="metadata3629">
    <rdf:RDF>
      <cc:Work
         rdf:about="">
        <dc:format>image/svg+xml</dc:format>
        <dc:type
           rdf:resource="http://purl.org/dc/dcmitype/StillImage" />
        <dc:title></dc:title>
      </cc:Work>
    </rdf:RDF>
  </metadata>
  <g
     inkscape:label="Camada 1"
     inkscape:groupmode="layer"
     id="layer1">
    <g
       id="g3593"
       transform="translate(1121.1075,1005.9383)"
       inkscape:export-xdpi="30"
       inkscape:export-ydpi="30">
      <path
         style="opacity:1;fill:url(#linearGradient6284);fill-opacity:1;stroke:#3b3434;stroke-width:0.53995156;stroke-linecap:square;stroke-linejoin:miter;stroke-miterlimit:4;stroke-dasharray:none;stroke-opacity:1"
         inkscape:transform-center-y="4.5"
         d="m -951.60934,-224.41105 33.667,0 c 2.275,18.0723 -17.88,33.1449 -17.88,33.1449 0,0 -18.695,-18.4365 -15.787,-33.1449 z"
         id="path6238"
         inkscape:connector-curvature="0"
         sodipodi:nodetypes="cccc" />
      <rect
         transform="matrix(1.0799031,0,0,1.0799031,-12055.617,2901.5172)"
         style="opacity:1;fill:url(#linearGradient6286);fill-opacity:1;stroke:#3b3434;stroke-width:1.55599999;stroke-linecap:square;stroke-linejoin:miter;stroke-miterlimit:4;stroke-dasharray:none;stroke-opacity:1;filter:url(#filter5927)"
         id="rect6240"
         width="62.225395"
         height="36.769554"
         x="10266.32"
         y="-2932.1636"
         ry="2.68803" />
      <rect
         transform="matrix(1.0799031,0,0,1.0799031,-12055.617,2901.5172)"
         ry="2.7020891"
         y="-3048.5078"
         x="10279.312"
         height="79.205559"
         width="35.151566"
         id="rect6242"
         style="opacity:1;fill:url(#linearGradient6288);fill-opacity:1;stroke:#353535;stroke-width:1.06799996;stroke-linecap:round;stroke-linejoin:round;stroke-miterlimit:4;stroke-dasharray:none;stroke-opacity:1;filter:url(#filter5806)" />
      <rect
         transform="matrix(1.0799031,0,0,1.0799031,-12055.617,2901.5172)"
         style="opacity:1;fill:url(#linearGradient6290);fill-opacity:1;stroke:#353535;stroke-width:1.79999995;stroke-linecap:round;stroke-linejoin:round;stroke-miterlimit:4;stroke-dasharray:none;stroke-opacity:1;filter:url(#filter5682)"
         id="rect6244"
         width="99.004509"
         height="223.08273"
         x="10247.386"
         y="-3233.4463"
         ry="7.6104436" />
      <rect
         transform="matrix(1.0799031,0,0,1.0799031,-12055.617,2901.5172)"
         style="opacity:1;fill:url(#linearGradient6292);fill-opacity:1;stroke:#353535;stroke-width:1.82000005;stroke-linecap:round;stroke-linejoin:round;stroke-miterlimit:4;stroke-dasharray:none;stroke-opacity:1;filter:url(#filter5542)"
         id="rect6246"
         width="140.08694"
         height="32.606731"
         x="10226.845"
         y="-3262.4434"
         ry="8.4153605" />
      <rect
         transform="matrix(1.0799031,0,0,1.0799031,-12055.617,2901.5172)"
         ry="5.8673081"
         y="-3180.0894"
         x="10236.023"
         height="22.733873"
         width="121.72881"
         id="rect6248"
         style="opacity:1;fill:url(#radialGradient6294);fill-opacity:1;stroke:#353535;stroke-width:0.89399999;stroke-linecap:round;stroke-linejoin:round;stroke-miterlimit:4;stroke-dasharray:none;stroke-opacity:1;filter:url(#filter5534)" />
      <rect
         style="opacity:1;fill:url(#radialGradient6296);fill-opacity:1;stroke:#353535;stroke-width:0.08190789;stroke-linecap:round;stroke-linejoin:round;stroke-miterlimit:4;stroke-dasharray:none;stroke-opacity:1"
         id="rect6250"
         width="221.58003"
         height="9.5752783"
         x="-1051.3899"
         y="-493.43451"
         ry="2.4712512" />
      <rect
         transform="matrix(1.0799031,0,0,1.0799031,-12055.617,2901.5172)"
         style="opacity:1;fill:url(#radialGradient6298);fill-opacity:1;stroke:#353535;stroke-width:1.37600005;stroke-linecap:round;stroke-linejoin:miter;stroke-miterlimit:4;stroke-dasharray:none;stroke-opacity:1;filter:url(#filter5618)"
         id="rect6252"
         width="205.1851"
         height="8.8667936"
         x="10190.013"
         y="-3137.6716"
         ry="2.2884009" />
      <rect
         ry="2.4712512"
         y="-467.51685"
         x="-1051.3899"
         height="9.5752783"
         width="221.58003"
         id="rect6254"
         style="opacity:1;fill:url(#radialGradient6300);fill-opacity:1;stroke:#353535;stroke-width:0.08190789;stroke-linecap:round;stroke-linejoin:round;stroke-miterlimit:4;stroke-dasharray:none;stroke-opacity:1" />
      <rect
         transform="matrix(1.0799031,0,0,1.0799031,-12055.617,2901.5172)"
         ry="2.2884009"
         y="-3113.6716"
         x="10190.013"
         height="8.8667936"
         width="205.1851"
         id="rect6256"
         style="opacity:1;fill:url(#radialGradient6302);fill-opacity:1;stroke:#353535;stroke-width:1.37600005;stroke-linecap:round;stroke-linejoin:miter;stroke-miterlimit:4;stroke-dasharray:none;stroke-opacity:1;filter:url(#filter5618)" />
      <rect
         style="opacity:1;fill:url(#radialGradient6304);fill-opacity:1;stroke:#353535;stroke-width:0.08190789;stroke-linecap:round;stroke-linejoin:round;stroke-miterlimit:4;stroke-dasharray:none;stroke-opacity:1"
         id="rect6258"
         width="221.58003"
         height="9.5752783"
         x="-1051.3899"
         y="-441.59918"
         ry="2.4712512" />
      <rect
         transform="matrix(1.0799031,0,0,1.0799031,-12055.617,2901.5172)"
         style="opacity:1;fill:url(#radialGradient6306);fill-opacity:1;stroke:#353535;stroke-width:1.37600005;stroke-linecap:round;stroke-linejoin:miter;stroke-miterlimit:4;stroke-dasharray:none;stroke-opacity:1;filter:url(#filter5618)"
         id="rect6260"
         width="205.1851"
         height="8.8667936"
         x="10190.013"
         y="-3089.6716"
         ry="2.2884009" />
      <rect
         ry="2.4712512"
         y="-415.68152"
         x="-1051.3899"
         height="9.5752783"
         width="221.58003"
         id="rect6262"
         style="opacity:1;fill:url(#radialGradient6308);fill-opacity:1;stroke:#353535;stroke-width:0.08190789;stroke-linecap:round;stroke-linejoin:round;stroke-miterlimit:4;stroke-dasharray:none;stroke-opacity:1" />
      <rect
         transform="matrix(1.0799031,0,0,1.0799031,-12055.617,2901.5172)"
         ry="2.2884009"
         y="-3065.6716"
         x="10190.013"
         height="8.8667936"
         width="205.1851"
         id="rect6264"
         style="opacity:1;fill:url(#radialGradient6310);fill-opacity:1;stroke:#353535;stroke-width:1.37600005;stroke-linecap:round;stroke-linejoin:miter;stroke-miterlimit:4;stroke-dasharray:none;stroke-opacity:1;filter:url(#filter5618)" />
      <rect
         style="opacity:1;fill:url(#radialGradient6312);fill-opacity:1;stroke:#353535;stroke-width:0.08190789;stroke-linecap:round;stroke-linejoin:round;stroke-miterlimit:4;stroke-dasharray:none;stroke-opacity:1"
         id="rect6266"
         width="221.58003"
         height="9.5752783"
         x="-1051.3899"
         y="-391.92365"
         ry="2.4712512" />
      <rect
         transform="matrix(1.0799031,0,0,1.0799031,-12055.617,2901.5172)"
         style="opacity:1;fill:url(#radialGradient6314);fill-opacity:1;stroke:#353535;stroke-width:1.37600005;stroke-linecap:round;stroke-linejoin:miter;stroke-miterlimit:4;stroke-dasharray:none;stroke-opacity:1;filter:url(#filter5618)"
         id="rect6268"
         width="205.1851"
         height="8.8667936"
         x="10190.013"
         y="-3043.6716"
         ry="2.2884009" />
      <rect
         ry="2.4712512"
         y="-363.84619"
         x="-1051.3899"
         height="9.5752783"
         width="221.58003"
         id="rect6270"
         style="opacity:1;fill:url(#radialGradient6316);fill-opacity:1;stroke:#353535;stroke-width:0.08190789;stroke-linecap:round;stroke-linejoin:round;stroke-miterlimit:4;stroke-dasharray:none;stroke-opacity:1" />
      <rect
         ry="2.70209"
         y="-2974.981"
         x="10346.819"
         height="58"
         width="120"
         id="rect6272"
         style="opacity:1;fill:#666666;fill-opacity:1;stroke:#353535;stroke-width:1.29999995;stroke-linecap:round;stroke-linejoin:round;stroke-miterlimit:4;stroke-dasharray:none;stroke-opacity:1;filter:url(#filter5774)"
         transform="matrix(0.06975987,0,0,1.0742843,-1578.9833,2884.9644)" />
      <rect
         transform="matrix(1.0799031,0,0,1.0799031,-12055.617,2901.5172)"
         style="opacity:1;fill:url(#radialGradient6318);fill-opacity:1;stroke:#353535;stroke-width:1.29999995;stroke-linecap:round;stroke-linejoin:round;stroke-miterlimit:4;stroke-dasharray:none;stroke-opacity:1;filter:url(#filter5774)"
         id="rect6274"
         width="120"
         height="58"
         x="10251.904"
         y="-2974.981"
         ry="2.70209" />
      <rect
         transform="matrix(1.0799031,0,0,1.0799031,-12055.617,2901.5172)"
         ry="2.2884009"
         y="-3017.6716"
         x="10190.013"
         height="8.8667936"
         width="205.1851"
         id="rect6276"
         style="opacity:1;fill:url(#radialGradient6320);fill-opacity:1;stroke:#353535;stroke-width:1.37600005;stroke-linecap:round;stroke-linejoin:miter;stroke-miterlimit:4;stroke-dasharray:none;stroke-opacity:1;filter:url(#filter5618)" />
      <ellipse
         style="opacity:1;fill:#333333;fill-opacity:1;stroke:#353535;stroke-width:1.40387392;stroke-linecap:round;stroke-linejoin:miter;stroke-miterlimit:4;stroke-dasharray:none;stroke-opacity:1"
         id="ellipse6278"
         cx="-911.01788"
         cy="-259.50787"
         rx="5.3995156"
         ry="4.8595638" />
      <ellipse
         ry="14.535687"
         rx="16.150763"
         cy="-285.06781"
         cx="-885.75616"
         id="ellipse6280"
         style="opacity:1;fill:#333333;fill-opacity:1;stroke:#353535;stroke-width:4.19919825;stroke-linecap:round;stroke-linejoin:miter;stroke-miterlimit:4;stroke-dasharray:none;stroke-opacity:1" />
    </g>
    <g
       id="g3617"
       transform="translate(1127.312,721.33773)"
       inkscape:export-xdpi="30"
       inkscape:export-ydpi="30">
      <rect
         transform="matrix(0,1,-0.82337557,0.56749685,0,0)"
         style="opacity:1;fill:#5e9bc7;fill-opacity:1;stroke:none;stroke-width:3.0999999;stroke-linecap:round;stroke-linejoin:round;stroke-miterlimit:4;stroke-dasharray:none;stroke-opacity:1"
         id="rect6322"
         width="25.193329"
         height="20.942606"
         x="-465.02451"
         y="1317.3635"
         ry="0" />
      <rect
         transform="matrix(0,-1,1,0,0,0)"
         style="opacity:1;fill:#808080;fill-opacity:1;stroke:none;stroke-width:3.0999999;stroke-linecap:round;stroke-linejoin:round;stroke-miterlimit:4;stroke-dasharray:none;stroke-opacity:1"
         id="rect6324"
         width="25.193329"
         height="279.41205"
         x="-318.8067"
         y="-1101.6106"
         ry="0" />
      <path
         style="opacity:1;fill:#666666;fill-opacity:1;stroke:none;stroke-width:3.0999999;stroke-linecap:round;stroke-linejoin:round;stroke-miterlimit:4;stroke-dasharray:none;stroke-opacity:1"
         d="m -767.47734,260.57845 0,23.5012 -54.72,35.5752 0,-25.1934 z"
         id="path6326"
         inkscape:connector-curvature="0"
         sodipodi:nodetypes="ccccc" />
      <path
         style="opacity:1;fill:#cccccc;fill-opacity:1;stroke:#2998c7;stroke-width:0.63240731;stroke-linecap:round;stroke-linejoin:round;stroke-miterlimit:4;stroke-dasharray:none;stroke-opacity:1"
         d="m -1101.6103,293.93875 54.125,-32.5476 280.08596,-0.3984 -54.847,33.1948 z"
         id="path6328"
         inkscape:connector-curvature="0"
         sodipodi:nodetypes="ccccc" />
      <path
         inkscape:connector-curvature="0"
         id="path6330"
         d="m -963.39334,266.07045 c -3.035,-1.6612 -5.592,-3.0953 -5.686,-3.1869 -0.09,-0.091 0.455,-1.8032 1.211,-3.8041 2.533,-6.6738 3.087,-9.905 3.058,-17.8379 0,-6.3653 -0.175,-7.7445 -1.261,-11.5998 -1.512,-5.3572 -4.167,-11.1677 -7.672,-16.7886 -7.51,-12.0375 -11.913,-26.8115 -11.943,-40.0546 0,-5.7486 1.219,-13.7558 3.069,-19.9932 1.673,-5.6279 6.413,-16.6909 7.154,-16.6909 0.638,0 11.378,7.0532 11.378,7.4719 0,0.2021 -0.935,2.3596 -2.082,4.7935 -8.866,18.8217 -7.395,37.6308 4.478,57.2665 12.112,20.0314 14.12,39.2598 6.253,59.8842 -0.757,1.9867 -1.618,3.6005 -1.909,3.5863 -0.291,0 -3.013,-1.3849 -6.048,-3.0464 z m 36.781,0 c -3.034,-1.6612 -5.592,-3.0953 -5.686,-3.1869 -0.09,-0.091 0.455,-1.8032 1.216,-3.8041 2.532,-6.6738 3.086,-9.905 3.053,-17.8379 0,-6.3653 -0.174,-7.7445 -1.262,-11.5998 -1.473,-5.2343 -4.204,-11.2766 -7.26,-16.0797 -5.12,-8.048 -10.383,-25.1485 -11.927,-38.7521 -0.712,-6.2602 -0.31,-20.6165 0.721,-25.7415 1.222,-6.0937 3.734,-13.6692 6.412,-19.3456 3.796,-8.041 2.791,-7.6951 9.31,-3.2042 3.086,2.1263 5.621,4.0223 5.632,4.2131 0,0.1925 -0.682,1.6482 -1.54,3.2387 -5.494,10.1505 -8.13,23.324 -7.184,35.8575 0.96,12.6961 5.242,27.5741 10.376,36.0391 11.909,19.6323 13.908,39.1884 6.099,59.6635 -0.757,1.9867 -1.617,3.6005 -1.911,3.5863 -0.292,0 -3.013,-1.3849 -6.049,-3.0464 z m 36.785,0 c -3.037,-1.6612 -5.595,-3.0953 -5.686,-3.1869 -0.1,-0.091 0.452,-1.8032 1.212,-3.8041 2.533,-6.6738 3.086,-9.905 3.054,-17.8379 0,-6.3653 -0.175,-7.7445 -1.261,-11.5998 -1.603,-5.6902 -4.132,-11.0779 -8.428,-17.9604 -12.977,-20.7955 -16.614,-41.7296 -10.315,-59.4253 1.675,-4.7108 5.233,-11.3343 8.06,-15.0094 l 2.005,-2.6047 2.92,2.8011 c 1.605,1.5405 3.896,3.778 5.084,4.9718 l 2.165,2.1712 -2.299,3.2917 c -11.006,15.757 -9.659,33.2084 4.351,56.3745 4.66,7.7028 7.066,12.7988 8.995,19.0457 4.213,13.6298 3.573,27.8886 -1.9,42.2326 -0.756,1.9867 -1.618,3.6005 -1.908,3.5863 -0.294,0 -3.016,-1.3849 -6.049,-3.0464 z"
         style="fill:#e6e6e6"
         sodipodi:nodetypes="ccccccccssccsccccccccccccccccccccccccccccccccccccc" />
    </g>
    <g
       id="g3574"
       transform="translate(1175.5962,993.90049)"
       inkscape:export-xdpi="150"
       inkscape:export-ydpi="150">
      <rect
         ry="8.5782146"
         y="-842.72247"
         x="-986.87042"
         height="17.156429"
         width="223.03358"
         id="rect6175"
         style="opacity:1;fill:#e6e6e6;fill-opacity:1;stroke:none;stroke-width:28.79999924;stroke-linecap:round;stroke-linejoin:round;stroke-miterlimit:4;stroke-dasharray:none;stroke-opacity:1" />
      <rect
         ry="2.0670846"
         y="-856.75958"
         x="-896.40948"
         height="15.596754"
         width="48.349937"
         id="rect6177"
         style="opacity:1;fill:#e6e6e6;fill-opacity:1;stroke:none;stroke-width:28.79999924;stroke-linecap:round;stroke-linejoin:round;stroke-miterlimit:4;stroke-dasharray:none;stroke-opacity:1" />
      <rect
         style="opacity:1;fill:#e6e6e6;fill-opacity:1;stroke:none;stroke-width:28.79999924;stroke-linecap:round;stroke-linejoin:round;stroke-miterlimit:4;stroke-dasharray:none;stroke-opacity:1"
         id="rect6179"
         width="208.99651"
         height="7.798377"
         x="-982.19171"
         y="-824.00641"
         ry="3.8991885" />
      <rect
         ry="3.8991885"
         y="-814.64825"
         x="-982.19171"
         height="7.798377"
         width="208.99651"
         id="rect6181"
         style="opacity:1;fill:#e6e6e6;fill-opacity:1;stroke:none;stroke-width:28.79999924;stroke-linecap:round;stroke-linejoin:round;stroke-miterlimit:4;stroke-dasharray:none;stroke-opacity:1" />
      <rect
         style="opacity:1;fill:#e6e6e6;fill-opacity:1;stroke:none;stroke-width:28.79999924;stroke-linecap:round;stroke-linejoin:round;stroke-miterlimit:4;stroke-dasharray:none;stroke-opacity:1"
         id="rect6183"
         width="208.99651"
         height="7.798377"
         x="-982.19171"
         y="-805.29022"
         ry="3.8991885" />
      <rect
         ry="3.8991885"
         y="-795.93219"
         x="-982.19171"
         height="7.798377"
         width="208.99651"
         id="rect6185"
         style="opacity:1;fill:#e6e6e6;fill-opacity:1;stroke:none;stroke-width:28.79999924;stroke-linecap:round;stroke-linejoin:round;stroke-miterlimit:4;stroke-dasharray:none;stroke-opacity:1" />
      <rect
         style="opacity:1;fill:#e6e6e6;fill-opacity:1;stroke:none;stroke-width:28.79999924;stroke-linecap:round;stroke-linejoin:round;stroke-miterlimit:4;stroke-dasharray:none;stroke-opacity:1"
         id="rect6187"
         width="208.99651"
         height="7.798377"
         x="-982.19171"
         y="-786.57416"
         ry="3.8991885" />
      <rect
         ry="3.8991885"
         y="-777.21613"
         x="-982.19171"
         height="7.798377"
         width="208.99651"
         id="rect6189"
         style="opacity:1;fill:#e6e6e6;fill-opacity:1;stroke:none;stroke-width:28.79999924;stroke-linecap:round;stroke-linejoin:round;stroke-miterlimit:4;stroke-dasharray:none;stroke-opacity:1" />
      <rect
         style="opacity:1;fill:#e6e6e6;fill-opacity:1;stroke:none;stroke-width:28.79999924;stroke-linecap:round;stroke-linejoin:round;stroke-miterlimit:4;stroke-dasharray:none;stroke-opacity:1"
         id="rect6191"
         width="208.99651"
         height="7.798377"
         x="-982.19171"
         y="-767.85809"
         ry="3.8991885" />
      <rect
         style="opacity:1;fill:#e6e6e6;fill-opacity:1;stroke:none;stroke-width:28.79999924;stroke-linecap:round;stroke-linejoin:round;stroke-miterlimit:4;stroke-dasharray:none;stroke-opacity:1"
         id="rect6193"
         width="223.03358"
         height="17.156429"
         x="-986.87042"
         y="-758.50006"
         ry="8.5782146" />
      <ellipse
         style="opacity:1;fill:#e6e6e6;fill-opacity:1;stroke:#ffffff;stroke-width:27.68423843;stroke-linecap:round;stroke-linejoin:round;stroke-miterlimit:4;stroke-dasharray:none;stroke-opacity:1"
         id="ellipse6195"
         cx="-1003.2464"
         cy="-846.383"
         rx="91.241013"
         ry="92.80069" />
      <ellipse
         ry="92.80069"
         rx="91.241013"
         cy="-846.383"
         cx="-1004.8069"
         id="ellipse6197"
         style="opacity:1;fill:#e6e6e6;fill-opacity:1;stroke:#353535;stroke-width:22.45932579;stroke-linecap:round;stroke-linejoin:round;stroke-miterlimit:4;stroke-dasharray:none;stroke-opacity:1" />
      <ellipse
         style="opacity:1;fill:url(#radialGradient6531);fill-opacity:1;stroke:none;stroke-width:28.79999924;stroke-linecap:round;stroke-linejoin:round;stroke-miterlimit:4;stroke-dasharray:none;stroke-opacity:1"
         id="ellipse6199"
         cx="-1004.8069"
         cy="-847.94257"
         rx="74.372925"
         ry="75.644257" />
      <path
         inkscape:connector-curvature="0"
         id="path6201"
         d="m -1004.9853,-859.81455 c -11.05,0.7255 -14.82,19.5783 -3.415,22.9838 7.508,2.8365 16.57796,-4.8109 13.99396,-12.7789 -0.827,-5.1188 -4.813,-10.7068 -10.57896,-10.2049 z"
         style="opacity:1;fill:#e6e6e6;fill-opacity:1;stroke:none;stroke-width:28.79999924;stroke-linecap:round;stroke-linejoin:round;stroke-miterlimit:4;stroke-dasharray:none;stroke-opacity:1" />
      <path
         style="fill:url(#linearGradient6541);fill-opacity:1;stroke:#403838;stroke-width:0.81109333;stroke-opacity:1"
         d="m -1002.3643,-930.27965 c -46.23,-1e-4 -83.704,37.3174 -83.704,83.3509 0,46.0337 37.474,83.3512 83.704,83.3511 46.22896,-1e-4 83.70196,-37.3176 83.70196,-83.3511 0,-46.0333 -37.473,-83.3509 -83.70196,-83.3509 z m -1.372,14.285 c 13.92296,-1.0316 33.56796,3.7114 25.70596,22.633 -0.32,0.7065 -4.368,6.3825 -8.992,12.6137 l -8.411,11.3288 -1.378,-0.2308 c -0.755,-0.1267 -3.165,-0.2306 -5.35196,-0.2306 -2.186,0 -4.596,0.1082 -5.351,0.2406 l -1.378,0.2405 -3.282,-4.418 c -1.806,-2.4298 -4.73,-6.365 -6.502,-8.7446 -8.57,-11.5137 -8.175,-10.7978 -8.354,-15.1276 -0.161,-3.8715 0.305,-6.4606 1.669,-9.2638 2.144,-4.4088 6.869,-7.9064 11.754,-8.7006 1.37,-0.2226 5.461,-0.3324 9.871,-0.3406 z m -48.369,29.6148 c 0.375,0.01 0.751,0.028 1.122,0.066 2.748,0.2725 8.088,2.0499 9.547,3.1769 0.646,0.4993 4.091,4.8277 7.655,9.6188 3.566,4.791 7.444,9.9745 8.621,11.5181 1.771,2.3246 2.076,2.8887 1.777,3.2823 -1.462,1.9345 -3.303,6.9968 -3.59,9.8743 l -0.194,1.9395 -7.225,2.2887 c -3.973,1.2587 -10.225,3.2391 -13.892,4.4012 -8.108,2.5691 -8.869,2.623 -13.671,0.9726 -4.722,-1.6228 -6.938,-3.1886 -9.269,-6.5487 -1.74,-2.5081 -2.414,-4.5876 -2.582,-7.9785 -0.175,-3.489 -0.159,-3.5515 3.728,-15.1515 1.44,-4.2993 3.056,-8.5278 3.661,-9.5843 2.731,-4.7637 8.667,-7.9784 14.312,-7.8746 z m 100.31896,0.019 c 5.577,0.059 11.145,3.1634 13.917,7.9766 0.877,1.5158 6.394,17.5238 7.102,20.5887 0.803,3.4897 0.04,8.1509 -1.825,11.162 -2.302,3.7146 -5.268,5.9053 -10.179,7.5189 -4.534,1.4895 -5.716,1.408 -12.749,-0.882 -3.113,-1.0133 -9.249,-2.9766 -13.636,-4.3621 l -7.977,-2.5196 -0.36,-2.4369 c -0.488,-3.3026 -1.701,-6.5935 -3.412,-9.2634 -0.376,-0.5855 -0.09,-1.0562 3.715,-6.1169 2.267,-3.0157 6.011,-8.0341 8.317,-11.1523 2.309,-3.1181 4.364,-5.8762 4.569,-6.129 1.369,-1.6918 5.896,-3.576 10.135,-4.219 0.79,-0.1197 1.587,-0.1736 2.383,-0.165 z m -39.434,21.9542 c 0.66,-0.022 1.366,0.1441 2.077,0.5535 2.074,1.195 2.186,4.5858 0.193,5.7719 -1.485,0.8833 -3.304,0.7749 -4.446,-0.2655 -2.61,-2.3793 -0.673,-5.9687 2.176,-6.0599 z m -22.39796,0.1321 c 0.432,-0.01 0.888,0.06 1.348,0.2083 2.884,0.9288 3.095,5.3083 0.31,6.4436 -1.402,0.5718 -2.25,0.5322 -3.412,-0.158 -1.251,-0.7453 -1.624,-1.4526 -1.624,-3.0878 0,-1.9913 1.5,-3.3795 3.378,-3.4061 z m 11.457,5.1013 c 2.36296,0.019 4.81796,0.6642 7.03296,1.872 1.889,1.0296 4.364,3.7766 5.471,6.0702 0.81,1.6781 0.949,2.3417 1.039,4.9235 0.08,2.4385 0,3.307 -0.526,4.7503 -1.345,3.7432 -3.434,5.9892 -7.318,7.864 -2.032,0.98 -2.528,1.0941 -5.04696,1.1604 -1.537,0.042 -3.317,-0.054 -3.958,-0.2103 -5.242,-1.2782 -9.427,-5.7682 -10.281,-11.0365 -1.138,-7.0339 3.955,-13.9116 11.262,-15.2044 0.756,-0.1337 1.538,-0.1961 2.325,-0.1892 z m 18.44596,15.4328 c 0.323,0.01 0.627,0.1249 1.113,0.3518 1.233,0.5723 2.304,2.0746 2.307,3.2287 0,0.9744 -1.155,2.6769 -2.149,3.1684 -3.143,1.5512 -6.491,-2.1466 -4.519,-4.9894 0.468,-0.6758 1.175,-1.1976 2.001,-1.4786 0.574,-0.195 0.921,-0.2908 1.247,-0.2809 z m -36.68696,0.3459 c 0.954,0 1.943,0.4165 2.754,1.2797 0.929,0.9885 1.014,1.2294 0.874,2.4422 -0.111,0.9642 -0.411,1.5948 -1.058,2.2261 -2.638,2.5734 -7.067,-0.062 -5.855,-3.4803 0.572,-1.6072 1.89,-2.4737 3.285,-2.4677 z m 18.231,12.7452 c 0.666,-0.024 1.363,0.1363 2.021,0.5166 0.88696,0.5108 1.80996,1.9924 1.80996,2.9023 0,0.8957 -0.857,2.5054 -1.578,2.9605 -2.34296,1.4777 -5.30596,0.2143 -5.66796,-2.415 -0.302,-2.2049 1.42,-3.8977 3.415,-3.9644 z m 19.73996,0.3059 c 0.18,0 2.075,0.5572 4.215,1.2383 2.136,0.6812 4.16,1.2889 4.497,1.3506 1.91,0.3509 18.913,6.1197 19.987,6.7822 1.369,0.8436 4.493,4.7096 5.732,7.0952 2.958,5.6935 1.867,13.1917 -2.584,17.7829 -0.783,0.8058 -4.241,3.4509 -7.691,5.878 -3.448,2.4272 -6.997,4.9398 -7.886,5.5835 -2.105,1.5264 -4.124,2.5015 -6.349,3.0668 l 0,0 c -2.224,0.5654 -5.872,0.5584 -8.055,-0.015 -2.308,-0.6052 -5.06,-2.1021 -6.926,-3.7662 -2.228,-1.986 -5.196,-6.3614 -5.616,-8.2817 -0.515,-10.6196 -0.34,-17.7377 -0.34,-29.2617 l 1.661,-0.7163 c 2.396,-1.034 5.266,-3.0056 7.279,-5.0003 0.963,-0.9546 1.897,-1.7358 2.076,-1.7358 z m -39.64896,0 c 0.148,0 1.229,0.8808 2.401,1.96 2.324,2.1375 4.598,3.6641 7.176,4.8158 l 1.654,0.7398 -0.08,14.5172 c -0.107,16.8388 0.09,15.6738 -3.463,20.165 -2.398,3.026 -4.897,4.9627 -7.834,6.0709 -1.471,0.5548 -2.692,0.7612 -5.005,0.8471 -5.398,0.2001 -6.832,-0.4348 -16.563,-7.3437 -9.332,-6.625 -9.851,-7.0464 -11.32,-9.1721 -1.937,-2.8082 -2.604,-4.8033 -2.782,-8.3291 -0.231,-4.6389 0.71,-7.1612 4.568,-12.2562 2.318,-3.0622 0.553,-2.3596 26.861,-10.7033 2.271,-0.7203 4.251,-1.3114 4.397,-1.3114 z"
         id="path6437"
         inkscape:connector-curvature="0"
         sodipodi:nodetypes="ssssscccccscccccssccssscccccsscccccscsccssccccsccscccccccscscscccccscccscccscccsccccsscsccsccccccscccccccccccccccccssscscsc" />
      <g
         id="g3571">
        <path
           style="fill:#333333;fill-opacity:1;stroke:none;stroke-width:0.81109333;stroke-opacity:1"
           d="m -1003.7793,-932.40095 c -46.23,-1e-4 -83.704,37.3174 -83.704,83.3509 0,46.0337 37.474,83.3512 83.704,83.3511 46.22896,-1e-4 83.70196,-37.3176 83.70196,-83.3511 0,-46.0333 -37.473,-83.3509 -83.70196,-83.3509 z m -1.372,14.285 c 13.92296,-1.0316 33.56796,3.7114 25.70596,22.633 -0.32,0.7065 -4.368,6.3825 -8.992,12.6137 l -8.411,11.3288 -1.378,-0.2308 c -0.755,-0.1267 -3.16496,-0.2306 -5.35196,-0.2306 -2.186,0 -4.596,0.1082 -5.351,0.2406 l -1.378,0.2405 -3.282,-4.418 c -1.806,-2.4298 -4.73,-6.365 -6.502,-8.7446 -8.57,-11.5137 -8.175,-10.7978 -8.354,-15.1276 -0.161,-3.8715 0.305,-6.4606 1.669,-9.2638 2.144,-4.4088 6.869,-7.9064 11.754,-8.7006 1.37,-0.2226 5.461,-0.3324 9.871,-0.3406 z m -48.369,29.6148 c 0.375,0.01 0.751,0.028 1.122,0.066 2.748,0.2725 8.088,2.0499 9.547,3.1769 0.646,0.4993 4.091,4.8277 7.655,9.6188 3.566,4.791 7.444,9.9745 8.621,11.5181 1.771,2.3246 2.076,2.8887 1.777,3.2823 -1.462,1.9345 -3.303,6.9968 -3.59,9.8743 l -0.194,1.9395 -7.225,2.2887 c -3.973,1.2587 -10.225,3.2391 -13.892,4.4012 -8.108,2.5691 -8.869,2.623 -13.671,0.9726 -4.722,-1.6228 -6.938,-3.1886 -9.269,-6.5487 -1.74,-2.5081 -2.414,-4.5876 -2.582,-7.9785 -0.175,-3.489 -0.159,-3.5515 3.728,-15.1515 1.44,-4.2993 3.056,-8.5278 3.661,-9.5843 2.731,-4.7637 8.667,-7.9784 14.312,-7.8746 z m 100.31896,0.019 c 5.577,0.059 11.145,3.1634 13.917,7.9766 0.877,1.5158 6.394,17.5238 7.102,20.5887 0.803,3.4897 0.04,8.1509 -1.825,11.162 -2.302,3.7146 -5.268,5.9053 -10.179,7.5189 -4.534,1.4895 -5.716,1.408 -12.749,-0.882 -3.113,-1.0133 -9.249,-2.9766 -13.636,-4.3621 l -7.977,-2.5196 -0.36,-2.4369 c -0.488,-3.3026 -1.701,-6.5935 -3.412,-9.2634 -0.376,-0.5855 -0.09,-1.0562 3.715,-6.1169 2.267,-3.0157 6.011,-8.0341 8.317,-11.1523 2.309,-3.1181 4.364,-5.8762 4.569,-6.129 1.369,-1.6918 5.896,-3.576 10.135,-4.219 0.79,-0.1197 1.587,-0.1736 2.383,-0.165 z m -39.434,21.9542 c 0.66,-0.022 1.366,0.1441 2.077,0.5535 2.074,1.195 2.186,4.5858 0.193,5.7719 -1.485,0.8833 -3.304,0.7749 -4.446,-0.2655 -2.61,-2.3793 -0.673,-5.9687 2.176,-6.0599 z m -22.39796,0.1321 c 0.432,-0.01 0.888,0.06 1.348,0.2083 2.884,0.9288 3.095,5.3083 0.31,6.4436 -1.402,0.5718 -2.25,0.5322 -3.412,-0.158 -1.251,-0.7453 -1.624,-1.4526 -1.624,-3.0878 0,-1.9913 1.5,-3.3795 3.378,-3.4061 z m 11.457,5.1013 c 2.363,0.019 4.81796,0.6642 7.03296,1.872 1.889,1.0296 4.364,3.7766 5.471,6.0702 0.81,1.6781 0.949,2.3417 1.039,4.9235 0.08,2.4385 0,3.307 -0.526,4.7503 -1.345,3.7432 -3.434,5.9892 -7.318,7.864 -2.032,0.98 -2.52796,1.0941 -5.04696,1.1604 -1.537,0.042 -3.317,-0.054 -3.958,-0.2103 -5.242,-1.2782 -9.427,-5.7682 -10.281,-11.0365 -1.138,-7.0339 3.955,-13.9116 11.262,-15.2044 0.756,-0.1337 1.538,-0.1961 2.325,-0.1892 z m 18.44596,15.4328 c 0.323,0.01 0.627,0.1249 1.113,0.3518 1.233,0.5723 2.304,2.0746 2.307,3.2287 0,0.9744 -1.155,2.6769 -2.149,3.1684 -3.143,1.5512 -6.491,-2.1466 -4.519,-4.9894 0.468,-0.6758 1.175,-1.1976 2.001,-1.4786 0.574,-0.195 0.921,-0.2908 1.247,-0.2809 z m -36.68696,0.3459 c 0.954,0 1.943,0.4165 2.754,1.2797 0.929,0.9885 1.014,1.2294 0.874,2.4422 -0.111,0.9642 -0.411,1.5948 -1.058,2.2261 -2.638,2.5734 -7.067,-0.062 -5.855,-3.4803 0.572,-1.6072 1.89,-2.4737 3.285,-2.4677 z m 18.231,12.7452 c 0.666,-0.024 1.363,0.1363 2.021,0.5166 0.887,0.5108 1.80996,1.9924 1.80996,2.9023 0,0.8957 -0.85696,2.5054 -1.57796,2.9605 -2.343,1.4777 -5.306,0.2143 -5.668,-2.415 -0.302,-2.2049 1.42,-3.8977 3.415,-3.9644 z m 19.73996,0.3059 c 0.18,0 2.075,0.5572 4.215,1.2383 2.136,0.6812 4.16,1.2889 4.497,1.3506 1.91,0.3509 18.913,6.1197 19.987,6.7822 1.369,0.8436 4.493,4.7096 5.732,7.0952 2.958,5.6935 1.867,13.1917 -2.584,17.7829 -0.783,0.8058 -4.241,3.4509 -7.691,5.878 -3.448,2.4272 -6.997,4.9398 -7.886,5.5835 -2.105,1.5264 -4.124,2.5015 -6.349,3.0668 l 0,0 c -2.224,0.5654 -5.872,0.5584 -8.055,-0.015 -2.308,-0.6052 -5.06,-2.1021 -6.926,-3.7662 -2.228,-1.986 -5.196,-6.3614 -5.616,-8.2817 -0.515,-10.6196 -0.34,-17.7377 -0.34,-29.2617 l 1.661,-0.7163 c 2.396,-1.034 5.266,-3.0056 7.279,-5.0003 0.963,-0.9546 1.897,-1.7358 2.076,-1.7358 z m -39.64896,0 c 0.148,0 1.229,0.8808 2.401,1.96 2.324,2.1375 4.598,3.6641 7.176,4.8158 l 1.654,0.7398 -0.08,14.5172 c -0.107,16.8388 0.09,15.6738 -3.463,20.165 -2.398,3.026 -4.897,4.9627 -7.834,6.0709 -1.471,0.5548 -2.692,0.7612 -5.005,0.8471 -5.398,0.2001 -6.832,-0.4348 -16.563,-7.3437 -9.332,-6.625 -9.851,-7.0464 -11.32,-9.1721 -1.937,-2.8082 -2.604,-4.8033 -2.782,-8.3291 -0.231,-4.6389 0.71,-7.1612 4.568,-12.2562 2.318,-3.0622 0.553,-2.3596 26.861,-10.7033 2.271,-0.7203 4.251,-1.3114 4.397,-1.3114 z"
           id="path6553"
           inkscape:connector-curvature="0"
           sodipodi:nodetypes="ssssscccccscccccssccssscccccsscccccscsccssccccsccscccccccscscscccccscccscccscccsccccsscsccsccccccscccccccccccccccccssscscsc" />
      </g>
    </g>
    <g
       transform="matrix(3.130927,0,0,3.130927,-126.17655,-156.46325)"
       id="g4780"
       inkscape:export-xdpi="30"
       inkscape:export-ydpi="30">
      <circle
         style="opacity:1;fill:none;fill-opacity:1;stroke:#949494;stroke-width:8.36600018;stroke-miterlimit:4;stroke-dasharray:none;stroke-opacity:1"
         id="circle4175"
         cx="-30.020399"
         cy="162.33247"
         r="53.471317" />
      <rect
         ry="6.0609155"
         style="opacity:1;fill:#949494;fill-opacity:1;stroke:#949494;stroke-width:6.49682379;stroke-miterlimit:4;stroke-dasharray:none;stroke-opacity:1"
         id="rect4177"
         width="25.102686"
         height="25.102686"
         x="-42.571743"
         y="148.35124" />
      <rect
         ry="0.88776273"
         style="opacity:1;fill:#ffffff;fill-opacity:1;stroke:#949494;stroke-width:2;stroke-miterlimit:4;stroke-dasharray:none;stroke-opacity:1"
         id="rect4242"
         width="17.778078"
         height="18.788231"
         x="-38.734226"
         y="129.7699" />
      <rect
         y="132.85522"
         x="-34.100712"
         height="5.203855"
         width="1.1632448"
         id="rect4244"
         style="opacity:1;fill:#949494;fill-opacity:1;stroke:#949494;stroke-width:0.63676482;stroke-miterlimit:4;stroke-dasharray:none;stroke-opacity:1" />
      <rect
         style="opacity:1;fill:#949494;fill-opacity:1;stroke:#949494;stroke-width:0.63676482;stroke-miterlimit:4;stroke-dasharray:none;stroke-opacity:1"
         id="rect4246"
         width="1.1632448"
         height="5.203855"
         x="-28.100714"
         y="132.85522" />
      <path
         sodipodi:nodetypes="cc"
         inkscape:connector-curvature="0"
         id="path4248"
         d="m -26.785714,175.57649 c -23.87933,33.84978 7.142857,27.30478 7.142857,41.42857"
         style="fill:none;fill-rule:evenodd;stroke:#949494;stroke-width:3.5999999;stroke-linecap:butt;stroke-linejoin:miter;stroke-miterlimit:4;stroke-dasharray:none;stroke-opacity:1" />
      <rect
         ry="5"
         y="173.79077"
         x="-38.214287"
         height="10"
         width="13.214286"
         id="rect4250"
         style="opacity:1;fill:#ffffff;fill-opacity:1;stroke:#949494;stroke-width:3.5999999;stroke-miterlimit:4;stroke-dasharray:none;stroke-opacity:1" />
    </g>
  </g>
</svg>
